<?xml version="1.0" standalone="no"?><!DOCTYPE svg PUBLIC "-//W3C//DTD SVG 1.1//EN" "http://www.w3.org/Graphics/SVG/1.1/DTD/svg11.dtd"><svg t="1598492879055" class="icon" viewBox="0 0 1024 1024" version="1.1" xmlns="http://www.w3.org/2000/svg" p-id="2113" xmlns:xlink="http://www.w3.org/1999/xlink" width="200" height="200"><defs><style type="text/css"></style></defs><path d="M341.333333 170.666667h554.666667a85.333333 85.333333 0 0 1 85.333333 85.333333v512a85.333333 85.333333 0 0 1-85.333333 85.333333H341.333333c-21.546667 0-31.274667-7.936-51.072-29.098666a418.346667 418.346667 0 0 1-24.405333-28.928L29.824 512l22.784-27.306667 211.2-253.226666c4.437333-6.314667 11.178667-15.274667 18.986667-24.448 3.114667-3.669333 6.229333-7.125333 9.258666-10.282667C308.48 179.584 320.682667 170.666667 341.333333 170.666667z m6.4 91.648a346.453333 346.453333 0 0 0-16.298666 20.992L140.885333 512l191.658667 230.101333A376.106667 376.106667 0 0 0 354.56 768H896V256H353.408c-1.749333 1.834667-3.669333 3.968-5.674667 6.314667zM597.333333 451.669333l97.834667-97.834666 60.330667 60.330666L657.664 512l97.834667 97.834667-60.330667 60.330666L597.333333 572.330667l-97.834666 97.834666-60.330667-60.330666L537.002667 512l-97.834667-97.834667 60.330667-60.330666L597.333333 451.669333z" p-id="2114"></path></svg>