<?xml version="1.0" standalone="no"?><!DOCTYPE svg PUBLIC "-//W3C//DTD SVG 1.1//EN" "http://www.w3.org/Graphics/SVG/1.1/DTD/svg11.dtd"><svg class="icon" width="200px" height="186.69px" viewBox="0 0 1097 1024" version="1.1" xmlns="http://www.w3.org/2000/svg"><path d="M438.857143 658.285714h219.428571v-54.857143h-73.142857v-256h-65.133714l-84.553143 78.299429 43.995429 45.714286c13.714286-11.995429 22.272-18.285714 31.414857-32.585143H512v164.571428h-73.142857V658.285714z m292.571428-146.285714c0 104.009143-62.866286 237.714286-182.857142 237.714286s-182.857143-133.705143-182.857143-237.714286 62.866286-237.714286 182.857143-237.714286 182.857143 133.705143 182.857142 237.714286z m292.571429 146.285714v-292.571428c-80.566857 0-146.285714-65.718857-146.285714-146.285715H219.428571c0 80.566857-65.718857 146.285714-146.285714 146.285715v292.571428c80.566857 0 146.285714 65.718857 146.285714 146.285715h658.285715c0-80.566857 65.718857-146.285714 146.285714-146.285715z m73.142857-475.428571v658.285714c0 20.004571-16.566857 36.571429-36.571428 36.571429H36.571429c-20.004571 0-36.571429-16.566857-36.571429-36.571429V182.857143c0-20.004571 16.566857-36.571429 36.571429-36.571429h1024c20.004571 0 36.571429 16.566857 36.571428 36.571429z"  /></svg>